<?xml version="1.0" encoding="utf-8"?>
<!-- Generator: Adobe Illustrator 20.1.0, SVG Export Plug-In . SVG Version: 6.00 Build 0)  -->
<svg version="1.1" id="Layer_1" xmlns="http://www.w3.org/2000/svg" xmlns:xlink="http://www.w3.org/1999/xlink" x="0px" y="0px"
	 width="255px" height="200px" viewBox="0 0 255 200" style="enable-background:new 0 0 255 200;" xml:space="preserve">
<style type="text/css">
	.st0{display:none;}
	.st1{fill:none;stroke:#000000;stroke-width:0.25;stroke-miterlimit:10;}
	.st2{fill:none;stroke:#000000;stroke-miterlimit:10;}
	.st3{fill:#FFFFFF;stroke:#000000;stroke-miterlimit:10;}
	.st4{fill:#FFFFFF;stroke:#000000;stroke-width:0.6454;stroke-miterlimit:10;}
	.st5{fill:#EE5D26;}
	.st6{fill:#F6B129;}
	.st7{fill:#555556;}
	.st8{fill:#EDA032;}
	.st9{fill:#80C6CB;}
	.st10{fill:#B4DCDE;}
	.st11{fill:#B9CA3E;}
</style>
<g id="idQBAr.tif" class="st0">
	
		<image style="display:inline;overflow:visible;" width="400" height="283" id="Layer_0_1_" xlink:href="228A48F263C70257.png"  transform="matrix(1 0 0 1 -43 -63)">
	</image>
</g>
<g>
	<path d="M-347.2,150.9c2.4,0,4.3,1.9,4.3,4.3c0,2.4-1.9,4.3-4.3,4.3c-2.4,0-4.3-1.9-4.3-4.3C-351.5,152.8-349.6,150.9-347.2,150.9
		 M-347.2,150.6c-2.5,0-4.6,2.1-4.6,4.6c0,2.5,2.1,4.6,4.6,4.6s4.6-2.1,4.6-4.6C-342.6,152.7-344.6,150.6-347.2,150.6L-347.2,150.6z
		"/>
</g>
<g>
	<rect x="-379.3" y="50.5" width="1.4" height="4.6"/>
</g>
<g>
	<rect x="-379.3" y="59.6" width="1.4" height="9.1"/>
</g>
<g>
	<rect x="-379.3" y="69.9" width="1.4" height="9.1"/>
</g>
<g>
	<path d="M-355.7,44.6c-0.9,0-1.7-0.8-1.7-1.7c0-0.9,0.8-1.7,1.7-1.7c0.9,0,1.7,0.8,1.7,1.7C-354,43.9-354.7,44.6-355.7,44.6z
		 M-355.7,41.5c-0.8,0-1.4,0.6-1.4,1.4c0,0.8,0.6,1.4,1.4,1.4c0.8,0,1.4-0.6,1.4-1.4C-354.3,42.1-354.9,41.5-355.7,41.5z"/>
</g>
<g>
	<path d="M-350.9,40.6c-0.7,0-1.2-0.5-1.2-1.2c0-0.7,0.5-1.2,1.2-1.2c0.7,0,1.2,0.5,1.2,1.2C-349.7,40.1-350.2,40.6-350.9,40.6z
		 M-350.9,38.4c-0.6,0-1,0.5-1,1c0,0.6,0.5,1,1,1c0.6,0,1-0.5,1-1C-349.9,38.8-350.3,38.4-350.9,38.4z"/>
</g>
<g>
	<path d="M-347.3,40.6c-0.7,0-1.2-0.5-1.2-1.2c0-0.7,0.5-1.2,1.2-1.2c0.7,0,1.2,0.5,1.2,1.2C-346,40.1-346.6,40.6-347.3,40.6z
		 M-347.3,38.4c-0.6,0-1,0.5-1,1c0,0.6,0.5,1,1,1c0.6,0,1-0.5,1-1C-346.3,38.8-346.7,38.4-347.3,38.4z"/>
</g>
<g>
	<path d="M-317.9,148.7h-57.9V50.4h57.9V148.7z M-375.6,148.5h57.5V50.6h-57.5V148.5z"/>
</g>
<g>
	<path d="M-322,163.6h-49.6c-3.4,0-6.1-2.7-6.1-6.1V41.1c0-3.4,2.7-6.1,6.1-6.1h49.6c3.4,0,6.1,2.7,6.1,6.1v116.4
		C-315.9,160.9-318.6,163.6-322,163.6z M-371.6,35.2c-3.3,0-5.9,2.7-5.9,5.9v116.4c0,3.3,2.7,5.9,5.9,5.9h49.6
		c3.3,0,5.9-2.7,5.9-5.9V41.1c0-3.3-2.7-5.9-5.9-5.9H-371.6z"/>
</g>
<g>
	<path d="M-322.7,162.5h-48.2c-3.4,0-6.1-2.7-6.1-6.1V42.2c0-3.4,2.7-6.1,6.1-6.1h48.2c3.4,0,6.1,2.7,6.1,6.1v114.1
		C-316.6,159.7-319.3,162.5-322.7,162.5z M-370.9,36.3c-3.3,0-5.9,2.7-5.9,5.9v114.1c0,3.3,2.7,5.9,5.9,5.9h48.2
		c3.3,0,5.9-2.7,5.9-5.9V42.2c0-3.3-2.7-5.9-5.9-5.9H-370.9z"/>
</g>
<g>
	<path d="M-347.2,151.5c2,0,3.7,1.7,3.7,3.7c0,2-1.7,3.7-3.7,3.7s-3.7-1.7-3.7-3.7C-350.9,153.2-349.2,151.5-347.2,151.5
		 M-347.2,151.2c-2.2,0-4,1.8-4,4c0,2.2,1.8,4,4,4c2.2,0,4-1.8,4-4C-343.2,153-345,151.2-347.2,151.2L-347.2,151.2z"/>
</g>
<path class="st1" d="M-342.2,43.8h-9.4c-0.5,0-0.9-0.4-0.9-0.9v0c0-0.5,0.4-0.9,0.9-0.9h9.4c0.5,0,0.9,0.4,0.9,0.9v0
	C-341.3,43.4-341.7,43.8-342.2,43.8z"/>
<g>
	<path class="st2" d="M-794-287.5h402c0,0,7-3,11.5,4.5l44.5,171c0,0,4.5,16.9-10.5,19.9l-6.2,1.6H-833c0,0-14.8-3.5-13.5-22
		l43-167.3C-803.5-279.8-801.5-285-794-287.5z"/>
	<polygon class="st2" points="-766,-279.5 -415,-279.5 -379.3,-113.5 -800,-113.5 	"/>
	<path class="st2" d="M-845.4-117.6c0,0-1.5,20.1,18.2,19.1H-351c0,0,12.6-2.5,15-13.5"/>
	<circle class="st2" cx="-379.1" cy="-203" r="3.1"/>
	<circle class="st2" cx="-802.4" cy="-204.2" r="7.7"/>
	<path class="st3" d="M-429.8-88.8h-17.9c-1.1,0-2.1-0.9-2.1-2.1v0c0-1.1,0.9-2.1,2.1-2.1h17.9c1.1,0,2.1,0.9,2.1,2.1v0
		C-427.8-89.7-428.7-88.8-429.8-88.8z"/>
	<path class="st3" d="M-404-88.8h-17.9c-1.1,0-2.1-0.9-2.1-2.1v0c0-1.1,0.9-2.1,2.1-2.1h17.9c1.1,0,2.1,0.9,2.1,2.1v0
		C-401.9-89.7-402.8-88.8-404-88.8z"/>
	<path class="st4" d="M-381.4-88.8h-5.1c-1.1,0-2.1-0.9-2.1-2.1l0,0c0-1.1,0.9-2.1,2.1-2.1h5.1c1.1,0,2.1,0.9,2.1,2.1l0,0
		C-379.3-89.7-380.3-88.8-381.4-88.8z"/>
</g>
<g>
	<path class="st2" d="M-360,470.5H42c0,0,7-3,11.5,4.5L98,646c0,0,4.5,16.9-10.5,19.9l-6.2,1.6H-399c0,0-14.8-3.5-13.5-22l43-167.3
		C-369.5,478.2-367.5,473-360,470.5z"/>
	<polygon class="st2" points="-332,478.5 19,478.5 54.7,644.5 -366,644.5 	"/>
	<path class="st2" d="M-411.4,640.4c0,0-1.5,20.1,18.2,19.1H83c0,0,12.6-2.5,15-13.5"/>
	<circle class="st2" cx="54.9" cy="555" r="3.1"/>
	<circle class="st2" cx="-368.4" cy="553.8" r="7.7"/>
	<path class="st3" d="M4.2,669.2h-17.9c-1.1,0-2.1-0.9-2.1-2.1l0,0c0-1.1,0.9-2.1,2.1-2.1H4.2c1.1,0,2.1,0.9,2.1,2.1l0,0
		C6.2,668.3,5.3,669.2,4.2,669.2z"/>
	<path class="st3" d="M30,669.2H12.1c-1.1,0-2.1-0.9-2.1-2.1l0,0c0-1.1,0.9-2.1,2.1-2.1H30c1.1,0,2.1,0.9,2.1,2.1l0,0
		C32.1,668.3,31.2,669.2,30,669.2z"/>
	<path class="st4" d="M52.6,669.2h-5.1c-1.1,0-2.1-0.9-2.1-2.1l0,0c0-1.1,0.9-2.1,2.1-2.1h5.1c1.1,0,2.1,0.9,2.1,2.1l0,0
		C54.7,668.3,53.7,669.2,52.6,669.2z"/>
</g>
<g id="_x39_ND3V3.tif">
	
		<image style="overflow:visible;" width="780" height="361" id="Layer_0_2_" xlink:href="228A48F263C70255.png"  transform="matrix(1 0 0 1 -324 -392.9958)">
	</image>
</g>
<g>
	<polygon class="st5" points="82.2,-721.4 101.2,-688.5 82.2,-655.7 44.3,-655.7 25.4,-688.5 44.3,-721.4 	"/>
	<polygon class="st6" points="82.2,-651.2 101.2,-618.4 82.2,-585.6 44.3,-585.6 25.4,-618.4 44.3,-651.2 	"/>
	<polygon class="st5" points="21.8,-686 40.8,-653.2 21.8,-620.4 -16.1,-620.4 -35,-653.2 -16.1,-686 	"/>
	<polygon class="st5" points="21.8,-615.9 40.8,-583 21.8,-550.2 -16.1,-550.2 -35,-583 -16.1,-615.9 	"/>
	<g>
		<path class="st7" d="M111.1-585.1c3.7-0.3,7-1.3,9-3.5c2.2-2.6,3.1-6.2,3.1-17.1v-37.9h8.2v41.1c0,8.8-1.4,14.5-5.4,18.6
			c-3.7,3.7-9.7,5.2-14.1,5.2L111.1-585.1z M132.4-656.3c0.1,2.7-1.9,5.1-5.2,5.1c-3.1,0-5.1-2.3-5.1-5.1c0-2.9,2.2-5.2,5.2-5.2
			C130.4-661.4,132.4-659.2,132.4-656.3z"/>
		<path class="st7" d="M186-621.2c0,16.8-11.6,24.1-22.6,24.1c-12.3,0-21.7-9-21.7-23.3c0-15.2,9.9-24.1,22.5-24.1
			C177.2-644.6,186-635.1,186-621.2z M150-620.8c0,9.9,5.7,17.4,13.8,17.4c7.9,0,13.8-7.4,13.8-17.6c0-7.7-3.8-17.4-13.6-17.4
			C154.2-638.4,150-629.4,150-620.8z"/>
		<path class="st7" d="M205.5-656.3c0.1,2.8-2,5.1-5.2,5.1c-2.9,0-5-2.2-5-5.1c0-2.9,2.2-5.2,5.2-5.2
			C203.6-661.4,205.5-659.2,205.5-656.3z M196.4-598.2v-45.4h8.2v45.4H196.4z"/>
		<path class="st7" d="M218.3-631.3c0-4.7-0.1-8.5-0.4-12.3h7.3l0.5,7.5h0.2c2.2-4.3,7.5-8.5,15-8.5c6.3,0,16,3.7,16,19.3v27.1h-8.2
			v-26.1c0-7.3-2.7-13.4-10.5-13.4c-5.4,0-9.7,3.8-11.1,8.4c-0.4,1-0.6,2.4-0.6,3.8v27.3h-8.2V-631.3z"/>
		<path class="st5" d="M279.5-656.3c0.1,2.8-2,5.1-5.2,5.1c-2.9,0-5-2.2-5-5.1c0-2.9,2.2-5.2,5.2-5.2
			C277.5-661.4,279.5-659.2,279.5-656.3z M270.3-598.2v-45.4h8.2v45.4H270.3z"/>
		<path class="st5" d="M292.2-631.3c0-4.7-0.1-8.5-0.4-12.3h7.3l0.5,7.5h0.2c2.2-4.3,7.5-8.5,15-8.5c6.3,0,16,3.7,16,19.3v27.1h-8.2
			v-26.1c0-7.3-2.7-13.4-10.5-13.4c-5.4,0-9.7,3.8-11.1,8.4c-0.4,1-0.6,2.4-0.6,3.8v27.3h-8.2V-631.3z"/>
	</g>
</g>
<g>
	<g id="K2MSPq.tif">
		<g>
			<path class="st8" d="M33.6,102.9c5.9-9.8,11.8-19.7,17.8-29.5C65.2,50.6,79,27.7,92.8,4.9c0.3-0.4,0.7-0.8,0.6-1.4
				c0.1,0,0.2,0,0.4,0c10.5,18.9,21,37.8,31.6,56.6c1.7,3.1,3.4,6.1,5.1,9.2c-0.8,0-1.5,0.1-2.3,0.1c-11.5,0-22.9,0-34.4,0
				c-0.6,0-1.5-0.4-1.8,0.6c-0.6,0.3-0.7,0.9-1,1.4c-6,10-11.9,20.1-18.1,30c-0.7,1.2-1.5,1.7-2.9,1.6
				C57.8,102.9,45.7,102.9,33.6,102.9z"/>
			<path class="st9" d="M92,70c0.3-1,1.2-0.6,1.8-0.6c11.5,0,22.9,0,34.4,0c0.8,0,1.5,0,2.3-0.1c7.2,0,14.3,0,21.5,0
				c16.7,0,33.5,0,50.2,0c0.7,0,1.4-0.3,2,0.4c-0.8,1.2-1.5,2.5-2.3,3.7c-5.5,9.1-11,18.2-16.5,27.4c-0.9,1.5-1.9,2.1-3.7,2.1
				c-11.4-0.1-22.7,0-34.1-0.1c-1.3,0-2,0.4-2.6,1.5c-1.1,2-2.3,4-3.5,6c-4.4,7.3-8.8,14.7-13.3,22c-0.1-0.2-0.3-0.3-0.4-0.5
				c-4.9-8.6-9.8-17.2-14.7-25.7c-5.7-10-11.4-20-17.1-30C94.7,74,93.8,71.7,92,70z"/>
			<path class="st10" d="M92,70c1.9,1.7,2.7,4,3.9,6.1c5.8,10,11.4,20,17.1,30c4.9,8.6,9.8,17.2,14.7,25.7c0.1,0.2,0.3,0.4,0.4,0.5
				c0,0.1,0,0.2,0,0.3c-9.1,0-18.2,0-27.3,0c-28.3,0-56.5,0-84.8,0c1.6-3.4,3.8-6.5,5.6-9.8c3.8-6.6,7.9-13,11.6-19.7
				c0.1-0.1,0.2-0.2,0.4-0.4c12.1,0,24.3,0,36.4,0c1.4,0,2.2-0.5,2.9-1.6c6.2-9.9,12.1-19.9,18.1-30C91.3,70.9,91.4,70.3,92,70z"/>
			<path class="st11" d="M128.1,132.7c0-0.1,0-0.2,0-0.3c4.4-7.3,8.8-14.6,13.3-22c1.2-2,2.4-4,3.5-6c0.6-1.1,1.4-1.5,2.6-1.5
				c11.4,0.1,22.7,0,34.1,0.1c1.8,0,2.8-0.6,3.7-2.1c5.5-9.2,11-18.2,16.5-27.4c0.8-1.2,1.5-2.5,2.3-3.7c3.7,6.3,7.4,12.7,11,19
				c8,14,16,28,24,42c0.3,0.5,0.6,1.1,0.9,1.7c-0.5,0.4-1,0.3-1.4,0.3c-36.4,0-72.9,0-109.3,0C128.9,132.7,128.5,132.7,128.1,132.7z
				"/>
		</g>
	</g>
	<g>
		<path class="st7" d="M21.7,142.5h5v40.6h-5V142.5z"/>
		<path class="st7" d="M60.2,169c0,10.2-7.1,14.7-13.8,14.7c-7.5,0-13.3-5.5-13.3-14.2c0-9.3,6.1-14.7,13.7-14.7
			C54.8,154.8,60.2,160.6,60.2,169z M38.3,169.3c0,6.1,3.5,10.6,8.4,10.6c4.8,0,8.4-4.5,8.4-10.8c0-4.7-2.3-10.6-8.3-10.6
			C40.8,158.6,38.3,164.1,38.3,169.3z"/>
		<path class="st7" d="M90.4,155.4c-0.1,2-0.2,4.2-0.2,7.6v16.1c0,6.3-1.3,10.2-3.9,12.6c-2.7,2.5-6.6,3.3-10.1,3.3
			c-3.3,0-7-0.8-9.2-2.3l1.3-3.8c1.8,1.1,4.7,2.2,8.1,2.2c5.1,0,8.9-2.7,8.9-9.7v-3.1h-0.1c-1.5,2.6-4.5,4.6-8.8,4.6
			c-6.9,0-11.8-5.8-11.8-13.5c0-9.4,6.1-14.7,12.5-14.7c4.8,0,7.4,2.5,8.6,4.8h0.1l0.2-4.2H90.4z M85.2,166.4c0-0.9-0.1-1.6-0.3-2.3
			c-0.9-2.9-3.4-5.3-7-5.3c-4.8,0-8.2,4.1-8.2,10.5c0,5.4,2.7,10,8.2,10c3.1,0,5.9-1.9,7-5.1c0.3-0.9,0.4-1.8,0.4-2.7V166.4z"/>
		<path class="st7" d="M103.8,147.7c0.1,1.7-1.2,3.1-3.2,3.1c-1.8,0-3-1.4-3-3.1c0-1.8,1.3-3.1,3.1-3.1
			C102.6,144.5,103.8,145.9,103.8,147.7z M98.2,183.1v-27.7h5v27.7H98.2z"/>
		<path class="st7" d="M131.3,182.1c-1.3,0.7-4.2,1.6-7.9,1.6c-8.3,0-13.8-5.7-13.8-14.1c0-8.5,5.8-14.7,14.9-14.7
			c3,0,5.6,0.7,7,1.4l-1.1,3.9c-1.2-0.7-3.1-1.3-5.8-1.3c-6.3,0-9.8,4.7-9.8,10.5c0,6.4,4.1,10.4,9.6,10.4c2.9,0,4.7-0.7,6.2-1.4
			L131.3,182.1z"/>
		<path class="st7" d="M137.9,183.1v-23.8H134v-3.8h3.9v-1.3c0-3.9,0.9-7.4,3.2-9.7c1.9-1.8,4.4-2.6,6.7-2.6c1.8,0,3.3,0.4,4.3,0.8
			l-0.7,3.9c-0.7-0.3-1.8-0.6-3.2-0.6c-4.3,0-5.4,3.8-5.4,8v1.5h6.7v3.8h-6.7v23.8H137.9z"/>
		<path class="st7" d="M169.4,183.1l-0.4-3.5h-0.2c-1.5,2.2-4.5,4.1-8.5,4.1c-5.6,0-8.5-3.9-8.5-7.9c0-6.7,5.9-10.4,16.6-10.3v-0.6
			c0-2.3-0.6-6.4-6.3-6.4c-2.6,0-5.3,0.8-7.2,2.1l-1.1-3.3c2.3-1.5,5.6-2.5,9.1-2.5c8.5,0,10.5,5.8,10.5,11.3v10.4
			c0,2.4,0.1,4.7,0.5,6.6H169.4z M168.6,169c-5.5-0.1-11.7,0.9-11.7,6.2c0,3.3,2.2,4.8,4.7,4.8c3.6,0,5.9-2.3,6.7-4.6
			c0.2-0.5,0.3-1.1,0.3-1.6V169z"/>
		<path class="st7" d="M181.6,164.1c0-3.3-0.1-6.1-0.2-8.6h4.4l0.2,5.4h0.2c1.3-3.7,4.3-6.1,7.7-6.1c0.6,0,1,0.1,1.4,0.2v4.7
			c-0.5-0.1-1-0.2-1.7-0.2c-3.5,0-6.1,2.7-6.7,6.5c-0.1,0.7-0.2,1.5-0.2,2.3v14.8h-5V164.1z"/>
		<path class="st7" d="M200.6,162.9c0-2.9-0.1-5.2-0.2-7.5h4.4l0.2,4.5h0.2c1.5-2.6,4.1-5.1,8.7-5.1c3.8,0,6.6,2.3,7.8,5.5h0.1
			c0.9-1.5,1.9-2.7,3.1-3.6c1.7-1.3,3.5-1.9,6.1-1.9c3.7,0,9.1,2.4,9.1,12v16.3h-4.9v-15.7c0-5.3-1.9-8.5-6-8.5
			c-2.9,0-5.1,2.1-5.9,4.6c-0.2,0.7-0.4,1.6-0.4,2.5v17.1h-4.9v-16.6c0-4.4-1.9-7.6-5.8-7.6c-3.1,0-5.4,2.5-6.2,5
			c-0.3,0.7-0.4,1.6-0.4,2.5v16.7h-4.9V162.9z"/>
	</g>
</g>
</svg>
